<svg width="18" height="18" viewBox="0 0 18 18" fill="none" xmlns="http://www.w3.org/2000/svg">
<path d="M14.6569 11.3431C13.7855 10.4718 12.7484 9.82678 11.6168 9.43631C12.8288 8.60159 13.625 7.20463 13.625 5.625C13.625 3.07478 11.5502 1 9 1C6.44978 1 4.375 3.07478 4.375 5.625C4.375 7.20463 5.17122 8.60159 6.38319 9.43631C5.25163 9.82678 4.2145 10.4718 3.34316 11.3431C1.83216 12.8542 1 14.8631 1 17H2.25C2.25 13.278 5.27803 10.25 9 10.25C12.722 10.25 15.75 13.278 15.75 17H17C17 14.8631 16.1678 12.8542 14.6569 11.3431ZM9 9C7.13903 9 5.625 7.486 5.625 5.625C5.625 3.764 7.13903 2.25 9 2.25C10.861 2.25 12.375 3.764 12.375 5.625C12.375 7.486 10.861 9 9 9Z" fill="black" stroke="black" stroke-width="0.5"/>
</svg>
