<svg width="147" height="96" viewBox="0 0 147 96" fill="none" xmlns="http://www.w3.org/2000/svg">
<path d="M22.428 29.432C22.404 29.432 22.356 29.42 22.284 29.396C22.236 29.372 22.188 29.36 22.14 29.36C20.172 27.536 18.276 26.228 16.452 25.436C14.292 24.5 11.784 24.032 8.928 24.032V32.816H9C9.96 31.568 11.46 30.944 13.5 30.944C14.244 30.944 15.204 31.028 16.38 31.196C17.892 31.412 18.78 31.532 19.044 31.556C20.22 31.484 21.192 31.076 21.96 30.332C21.96 31.94 21.18 33.2 19.62 34.112C18.804 34.592 17.844 34.832 16.74 34.832C16.164 34.832 15.288 34.748 14.112 34.58C12.936 34.388 12.048 34.292 11.448 34.292C10.992 34.292 10.572 34.328 10.188 34.4C9.3 34.832 8.856 35.696 8.856 36.992V43.94C8.856 44.972 9.288 45.98 10.152 46.964L1.044 47C1.26 46.52 1.464 46.04 1.656 45.56C1.896 44.96 2.016 44.396 2.016 43.868V24.572C2.016 24.308 1.896 23.984 1.656 23.6C1.296 23.096 1.104 22.808 1.08 22.736H21.636C21.852 24.2 22.116 26.432 22.428 29.432ZM43.6989 47.036H37.3629C37.2429 46.964 37.1709 46.82 37.1469 46.604C37.1469 46.436 37.1469 46.268 37.1469 46.1C37.1229 45.908 37.0389 45.776 36.8949 45.704C35.6949 47.024 34.0629 47.684 31.9989 47.684C30.2709 47.684 28.8189 47.24 27.6429 46.352C26.3949 45.392 25.7709 44.168 25.7709 42.68C25.7709 40.928 26.4669 39.512 27.8589 38.432C28.6749 37.784 30.1749 37.052 32.3589 36.236C34.5429 35.396 36.0309 34.652 36.8229 34.004C36.8949 33.74 36.9309 33.488 36.9309 33.248C36.9309 31.208 36.1989 30.188 34.7349 30.188C34.3989 30.188 34.0269 30.308 33.6189 30.548C33.2109 30.788 33.0069 31.04 33.0069 31.304C33.0069 31.376 32.9949 31.592 32.9709 31.952C32.9469 32.216 32.9469 32.42 32.9709 32.564C33.0189 32.78 33.1029 32.948 33.2229 33.068C32.5269 33.764 31.6269 34.112 30.5229 34.112C29.3709 34.112 28.3749 33.692 27.5349 32.852C26.7189 31.988 26.3109 30.968 26.3109 29.792C26.3109 29.6 26.3229 29.396 26.3469 29.18C28.6029 29.18 30.4869 29.108 31.9989 28.964C33.5349 28.796 34.6629 28.712 35.3829 28.712C37.0389 28.712 38.5629 28.916 39.9549 29.324C41.9709 29.948 42.9789 30.908 42.9789 32.204V45.164C42.9789 45.356 43.1229 45.68 43.4109 46.136C43.7229 46.568 43.8789 46.82 43.8789 46.892C43.8789 46.988 43.8189 47.036 43.6989 47.036ZM36.9309 42.932V35.876C35.0589 37.004 33.9909 37.676 33.7269 37.892C32.7189 38.804 32.2149 39.968 32.2149 41.384C32.2149 43.976 32.9229 45.272 34.3389 45.272C34.9629 45.272 35.5509 44.996 36.1029 44.444C36.6549 43.892 36.9309 43.388 36.9309 42.932ZM64.9955 41.168C64.9955 43.28 63.9995 45.056 62.0075 46.496C61.4555 46.904 60.7355 47.168 59.8475 47.288C59.0555 47.384 58.2635 47.468 57.4715 47.54C56.8475 47.468 55.5515 47.168 53.5835 46.64C52.0235 46.232 50.7275 46.076 49.6955 46.172C49.5755 46.196 49.3955 46.316 49.1555 46.532C48.9395 46.724 48.7835 46.82 48.6875 46.82C48.5435 46.82 48.4115 46.676 48.2915 46.388C47.9795 45.764 47.9315 44.984 48.1475 44.048C48.7955 42.896 49.6595 42.284 50.7395 42.212C50.9555 42.188 51.1595 42.176 51.3515 42.176C52.3835 42.176 53.6915 42.836 55.2755 44.156C56.8595 45.452 58.0955 46.1 58.9835 46.1C59.5115 46.1 60.0515 45.956 60.6035 45.668C61.1555 45.116 61.4435 44.492 61.4675 43.796C61.4915 43.124 61.1915 42.536 60.5675 42.032C60.4715 41.96 59.8715 41.612 58.7675 40.988C56.7035 40.46 54.6275 39.944 52.5395 39.44C50.1875 38.624 48.8315 37.136 48.4715 34.976C48.4235 34.688 48.3995 34.4 48.3995 34.112C48.3995 32.648 49.0475 31.28 50.3435 30.008C51.6635 28.952 53.3795 28.424 55.4915 28.424C56.2835 28.424 57.5075 28.52 59.1635 28.712C60.8195 28.904 62.0555 29 62.8715 29C63.3755 29 63.8555 28.976 64.3115 28.928C64.3115 28.928 64.3355 28.976 64.3835 29.072C64.1435 31.088 63.2675 32.42 61.7555 33.068C61.3235 33.26 60.8435 33.356 60.3155 33.356C59.4275 33.356 58.6355 33.104 57.9395 32.6C57.8435 32.48 57.7955 32.348 57.7955 32.204C57.7955 32.108 57.8195 31.976 57.8675 31.808C57.9395 31.616 57.9755 31.472 57.9755 31.376C57.9755 31.28 57.9635 31.196 57.9395 31.124C57.4595 30.212 56.3435 29.756 54.5915 29.756C53.9195 29.756 53.2715 30.212 52.6475 31.124C52.5275 31.292 52.4675 31.496 52.4675 31.736C52.4675 32.12 52.6115 32.504 52.8995 32.888C53.1875 33.272 53.5115 33.512 53.8715 33.608C55.4555 33.992 57.0395 34.376 58.6235 34.76C60.5915 35.288 62.0675 35.96 63.0515 36.776C64.3475 37.856 64.9955 39.32 64.9955 41.168ZM87.9106 47.144C86.7346 47.192 85.5226 47.216 84.2746 47.216C83.0506 47.216 81.8386 47.192 80.6386 47.144C81.0226 46.184 81.2146 44.888 81.2146 43.256C81.2146 42.8 81.1906 42.02 81.1426 40.916C81.0946 39.956 81.0826 39.212 81.1066 38.684C81.0346 38.204 81.0106 37.016 81.0346 35.12C81.0346 33.632 80.8546 32.456 80.4946 31.592C80.1106 30.992 79.4866 30.752 78.6226 30.872C77.4706 31.04 76.6906 31.688 76.2826 32.816C76.1386 33.176 75.9946 33.872 75.8506 34.904C75.8746 35.36 75.8866 38.936 75.8866 45.632C75.8866 45.848 75.9946 46.136 76.2106 46.496C76.4266 46.856 76.5586 47.108 76.6066 47.252C74.9026 47.324 72.3586 47.324 68.9746 47.252C69.4546 46.436 69.6946 45.32 69.6946 43.904C69.6946 44 69.7306 40.712 69.8026 34.04C69.8506 30.032 69.8146 26.804 69.6946 24.356C69.6706 23.732 69.4186 23.216 68.9386 22.808V22.556C69.7066 22.532 71.9026 22.52 75.5266 22.52C75.5986 22.592 75.6466 22.82 75.6706 23.204C75.6706 24.332 75.6946 26.012 75.7426 28.244C75.7666 29.276 75.8266 30.128 75.9226 30.8C76.7626 30.152 77.2786 29.768 77.4706 29.648C78.1186 29.216 78.7306 28.94 79.3066 28.82C79.9066 28.7 80.5186 28.64 81.1426 28.64C82.8706 28.64 84.2626 29.108 85.3186 30.044C86.3746 30.98 86.9026 32.564 86.9026 34.796C86.9026 35.06 86.8906 35.456 86.8666 35.984C86.8426 36.488 86.8306 36.872 86.8306 37.136C86.8306 37.472 86.8546 37.988 86.9026 38.684C86.9746 39.356 87.0106 39.86 87.0106 40.196C87.0106 43.196 86.9986 44.42 86.9746 43.868C87.0466 45.284 87.3586 46.376 87.9106 47.144ZM97.9298 25.112C97.9298 25.88 97.6538 26.54 97.1018 27.092C96.5738 27.644 95.9138 27.92 95.1218 27.92C94.3538 27.92 93.6938 27.644 93.1418 27.092C92.5898 26.54 92.3138 25.88 92.3138 25.112C92.3138 24.344 92.5898 23.696 93.1418 23.168C93.6938 22.616 94.3538 22.34 95.1218 22.34C95.8898 22.34 96.5498 22.616 97.1018 23.168C97.6538 23.696 97.9298 24.344 97.9298 25.112ZM99.1178 47H91.7018C92.1578 46.208 92.3858 45.524 92.3858 44.948V30.656C92.3858 30.032 92.0858 29.396 91.4858 28.748H98.3618V44.948C98.3618 45.5 98.6138 46.184 99.1178 47ZM121.933 38.036C121.933 40.652 121.045 42.908 119.269 44.804C117.517 46.676 115.345 47.624 112.753 47.648C110.137 47.672 107.905 46.736 106.057 44.84C104.233 42.944 103.321 40.7 103.321 38.108C103.321 35.468 104.221 33.2 106.021 31.304C107.821 29.408 110.029 28.46 112.645 28.46C115.237 28.46 117.433 29.408 119.233 31.304C121.033 33.176 121.933 35.42 121.933 38.036ZM115.633 37.856C115.633 36.632 115.513 35 115.273 32.96C115.177 32.12 114.889 31.412 114.409 30.836C113.953 30.26 113.353 29.972 112.609 29.972C111.169 29.972 110.281 30.968 109.945 32.96C109.753 34.088 109.657 35.72 109.657 37.856C109.657 40.304 109.777 42.164 110.017 43.436C110.401 45.452 111.313 46.448 112.753 46.424C114.025 46.4 114.889 45.38 115.345 43.364C115.537 42.524 115.633 40.688 115.633 37.856ZM144.517 47.072H137.173C137.533 46.256 137.713 45.56 137.713 44.984V34.04C137.713 31.448 137.101 30.152 135.877 30.152C134.869 30.152 134.077 30.512 133.501 31.232C132.925 31.952 132.637 32.888 132.637 34.04V44.876C132.637 45.452 132.829 46.172 133.213 47.036H126.121C126.673 46.076 126.949 45.32 126.949 44.768V31.088C126.949 30.176 126.589 29.384 125.869 28.712H132.457C132.457 29.456 132.589 29.936 132.853 30.152C134.101 28.904 135.733 28.28 137.749 28.28C139.597 28.256 141.037 28.748 142.069 29.756C143.101 30.764 143.617 32.18 143.617 34.004V45.092C143.617 45.332 143.749 45.656 144.013 46.064C144.301 46.592 144.469 46.928 144.517 47.072Z" fill="#FF730D"/>
<path d="M58.897 62.597C58.931 62.8463 58.948 63.09 58.948 63.328C58.948 64.8807 58.336 66.014 57.112 66.728C56.976 66.8187 56.6983 66.9433 56.279 67.102C55.871 67.204 55.4517 67.255 55.021 67.255C54.443 67.255 53.661 67.136 52.675 66.898C51.5983 66.6487 50.8277 66.507 50.363 66.473C50.057 66.507 49.836 66.5467 49.7 66.592C49.4733 66.6827 49.309 66.8243 49.207 67.017C49.1957 67.085 49.1447 67.153 49.054 67.221C48.7027 66.9263 48.527 66.5127 48.527 65.98C48.527 65.7873 48.5497 65.606 48.595 65.436C48.867 64.79 49.3033 64.399 49.904 64.263C50.1193 64.2177 50.329 64.195 50.533 64.195C51.2017 64.195 51.9553 64.501 52.794 65.113C53.9273 65.929 54.6357 66.3993 54.919 66.524C55.5763 66.626 56.092 66.5523 56.466 66.303C56.942 65.9743 57.18 65.5267 57.18 64.96C57.18 64.586 57.044 64.229 56.772 63.889C56.5227 63.5943 56.211 63.3677 55.837 63.209C55.395 63.0277 54.4657 62.7897 53.049 62.495C51.8137 62.2457 50.9127 61.9453 50.346 61.594C49.496 61.0727 48.9973 60.285 48.85 59.231C48.8273 59.0723 48.816 58.908 48.816 58.738C48.816 58.126 48.9747 57.5593 49.292 57.038C49.6093 56.5053 50.04 56.0917 50.584 55.797C51.2753 55.4343 52.1197 55.253 53.117 55.253C53.5477 55.253 54.205 55.2983 55.089 55.389C55.9843 55.4797 56.653 55.525 57.095 55.525C57.5257 55.525 57.9167 55.4967 58.268 55.44C58.2907 55.5533 58.302 55.6667 58.302 55.78C58.302 56.392 58.081 56.919 57.639 57.361C57.2083 57.803 56.6927 58.024 56.092 58.024C55.5593 58.024 55.0833 57.8937 54.664 57.633C54.6867 57.0323 54.63 56.6357 54.494 56.443C54.3693 56.3297 54.1993 56.222 53.984 56.12C53.814 56.0407 53.6383 55.9557 53.457 55.865C52.1763 55.7857 51.349 56.0747 50.975 56.732C50.8957 56.8793 50.856 57.038 50.856 57.208C50.856 57.548 50.9863 57.8767 51.247 58.194C51.8023 58.636 52.5673 58.9647 53.542 59.18C54.3807 59.35 55.2137 59.52 56.041 59.69C56.721 59.8827 57.333 60.2397 57.877 60.761C58.455 61.3277 58.795 61.9397 58.897 62.597ZM75.8617 67H71.8157C72.099 66.592 72.2407 66.0253 72.2407 65.3V56.273C72.2407 56.1483 72.1897 56.0067 72.0877 55.848C72.0083 55.7347 71.929 55.6157 71.8497 55.491H75.7427C75.7653 55.5137 75.7767 55.5477 75.7767 55.593C75.4593 55.8763 75.3007 56.188 75.3007 56.528V65.674C75.3007 66.1613 75.4877 66.6033 75.8617 67ZM98.8084 59.741C98.2644 58.7663 97.811 58.058 97.4484 57.616C96.8137 56.834 96.1394 56.3523 95.4254 56.171C95.3914 56.171 95.3744 56.2163 95.3744 56.307V66.031C95.3744 66.1783 95.4367 66.3483 95.5614 66.541C95.72 66.7903 95.8107 66.9547 95.8334 67.034H91.8554C92.1047 66.558 92.2294 66.15 92.2294 65.81C92.2294 65.81 92.2294 62.6197 92.2294 56.239C92.15 56.205 92.065 56.188 91.9744 56.188C91.8497 56.188 91.538 56.341 91.0394 56.647C90.1894 57.3383 89.4527 58.347 88.8294 59.673H88.7954C88.8407 58.755 88.8634 57.361 88.8634 55.491H98.6214C98.644 55.933 98.6724 56.6413 98.7064 57.616C98.7517 58.5907 98.7857 59.299 98.8084 59.741ZM122.513 62.784C122.411 63.5773 122.247 64.994 122.02 67.034L111.752 67.017C112.092 66.643 112.262 66.218 112.262 65.742V56.647C112.262 56.3183 112.103 55.984 111.786 55.644C111.786 55.4853 111.86 55.44 112.007 55.508H121.476C121.578 55.9387 121.725 57.0267 121.918 58.772C120.218 57.004 118.354 56.12 116.325 56.12C116.064 56.12 115.798 56.137 115.526 56.171V60.404C115.526 60.438 115.537 60.455 115.56 60.455C116.059 59.8317 116.784 59.52 117.736 59.52C118.031 59.52 118.546 59.5653 119.283 59.656C119.94 59.7353 120.433 59.7637 120.762 59.741C120.977 59.7297 121.261 59.5597 121.612 59.231C121.601 59.7977 121.374 60.2793 120.932 60.676C120.501 61.0727 120.003 61.271 119.436 61.271C119.164 61.271 118.745 61.2143 118.178 61.101C117.623 60.9877 117.22 60.931 116.971 60.931C116.314 60.931 115.815 61.22 115.475 61.798V66.337C115.6 66.4277 115.798 66.4617 116.07 66.439C116.41 66.4163 116.62 66.4163 116.699 66.439C117.821 66.337 118.903 65.9233 119.946 65.198C120.898 64.5407 121.737 63.6963 122.462 62.665C122.507 62.7103 122.524 62.75 122.513 62.784ZM145.776 62.597C145.81 62.8463 145.827 63.09 145.827 63.328C145.827 64.8807 145.215 66.014 143.991 66.728C143.855 66.8187 143.578 66.9433 143.158 67.102C142.75 67.204 142.331 67.255 141.9 67.255C141.322 67.255 140.54 67.136 139.554 66.898C138.478 66.6487 137.707 66.507 137.242 66.473C136.936 66.507 136.715 66.5467 136.579 66.592C136.353 66.6827 136.188 66.8243 136.086 67.017C136.075 67.085 136.024 67.153 135.933 67.221C135.582 66.9263 135.406 66.5127 135.406 65.98C135.406 65.7873 135.429 65.606 135.474 65.436C135.746 64.79 136.183 64.399 136.783 64.263C136.999 64.2177 137.208 64.195 137.412 64.195C138.081 64.195 138.835 64.501 139.673 65.113C140.807 65.929 141.515 66.3993 141.798 66.524C142.456 66.626 142.971 66.5523 143.345 66.303C143.821 65.9743 144.059 65.5267 144.059 64.96C144.059 64.586 143.923 64.229 143.651 63.889C143.402 63.5943 143.09 63.3677 142.716 63.209C142.274 63.0277 141.345 62.7897 139.928 62.495C138.693 62.2457 137.792 61.9453 137.225 61.594C136.375 61.0727 135.877 60.285 135.729 59.231C135.707 59.0723 135.695 58.908 135.695 58.738C135.695 58.126 135.854 57.5593 136.171 57.038C136.489 56.5053 136.919 56.0917 137.463 55.797C138.155 55.4343 138.999 55.253 139.996 55.253C140.427 55.253 141.084 55.2983 141.968 55.389C142.864 55.4797 143.532 55.525 143.974 55.525C144.405 55.525 144.796 55.4967 145.147 55.44C145.17 55.5533 145.181 55.6667 145.181 55.78C145.181 56.392 144.96 56.919 144.518 57.361C144.088 57.803 143.572 58.024 142.971 58.024C142.439 58.024 141.963 57.8937 141.543 57.633C141.566 57.0323 141.509 56.6357 141.373 56.443C141.249 56.3297 141.079 56.222 140.863 56.12C140.693 56.0407 140.518 55.9557 140.336 55.865C139.056 55.7857 138.228 56.0747 137.854 56.732C137.775 56.8793 137.735 57.038 137.735 57.208C137.735 57.548 137.866 57.8767 138.126 58.194C138.682 58.636 139.447 58.9647 140.421 59.18C141.26 59.35 142.093 59.52 142.92 59.69C143.6 59.8827 144.212 60.2397 144.756 60.761C145.334 61.3277 145.674 61.9397 145.776 62.597Z" fill="#331C18"/>
<rect y="59" width="44" height="4" fill="#331C18"/>
</svg>
