<svg width="34" height="36" viewBox="0 0 34 36" fill="none" xmlns="http://www.w3.org/2000/svg">
<rect y="6" width="30" height="30" rx="6" fill="#FF730D"/>
<path d="M12.6853 26.804C12.317 26.804 11.9637 26.9519 11.7033 27.2152C11.4427 27.4783 11.2964 27.8353 11.2964 28.2075C11.2964 28.5798 11.4427 28.9369 11.7033 29.2C11.9637 29.4632 12.317 29.611 12.6853 29.611C13.0537 29.611 13.407 29.4632 13.6674 29.2C13.9278 28.9368 14.0741 28.5798 14.0741 28.2075C14.0741 27.8353 13.9278 27.4783 13.6674 27.2152C13.407 26.9519 13.0537 26.804 12.6853 26.804ZM22.4075 23.9969H11.2964C10.9656 23.9969 10.6599 23.8187 10.4945 23.5292C10.3291 23.2397 10.3291 22.8829 10.4945 22.5934C10.6599 22.3039 10.9656 22.1257 11.2964 22.1257H19.1587C19.7618 22.1236 20.3482 21.9242 20.8296 21.5572C21.3113 21.1902 21.6622 20.6753 21.8298 20.0898L23.2977 14.8975C23.3775 14.6152 23.3217 14.3114 23.1467 14.077C22.9717 13.8425 22.6981 13.7047 22.4075 13.7047H11.0547C10.863 13.1594 10.5097 12.6873 10.0428 12.3524C9.57592 12.0175 9.01823 11.8362 8.44577 11.8333H7.5926C7.26181 11.8333 6.95613 12.0117 6.79073 12.3011C6.62534 12.5906 6.62534 12.9473 6.79073 13.2368C6.95613 13.5263 7.2618 13.7047 7.5926 13.7047H8.44577C8.64666 13.7053 8.84213 13.7719 9.00255 13.8941C9.16299 14.0164 9.28002 14.1879 9.33597 14.3831L9.47998 14.8928L9.48013 14.8975L10.9992 20.2702C10.0476 20.3736 9.21585 20.9647 8.79764 21.8348C8.37958 22.7048 8.43398 23.7309 8.94179 24.5507C9.44961 25.3704 10.3392 25.8683 11.2962 25.8683H22.4073C22.7381 25.8683 23.0438 25.6899 23.2092 25.4004C23.3746 25.111 23.3746 24.7543 23.2092 24.4648C23.0438 24.1753 22.7381 23.9969 22.4073 23.9969L22.4075 23.9969ZM21.1801 15.5758L20.0493 19.5752V19.5753C19.9935 19.7705 19.8764 19.9424 19.7159 20.0647C19.5553 20.187 19.3598 20.2536 19.1586 20.2542H12.9209L12.6848 19.4195L11.5987 15.5758L21.1801 15.5758ZM20.0927 26.804C19.7244 26.804 19.3711 26.9519 19.1106 27.2152C18.8501 27.4783 18.7038 27.8353 18.7038 28.2075C18.7038 28.5798 18.8501 28.9369 19.1106 29.2C19.3711 29.4632 19.7244 29.611 20.0927 29.611C20.461 29.611 20.8143 29.4632 21.0748 29.2C21.3353 28.9368 21.4816 28.5798 21.4816 28.2075C21.4816 27.8353 21.3353 27.4783 21.0748 27.2152C20.8143 26.9519 20.461 26.804 20.0927 26.804Z" fill="white"/>
<circle cx="28" cy="7" r="5.8" fill="white" stroke="#F1F1F1" stroke-width="0.4"/>
<path d="M26.098 5.41H27.556V10H28.708V3.7H27.862C27.763 4.348 27.115 4.825 26.224 4.825H26.098V5.41Z" fill="#331C18"/>
</svg>
