<svg width="11" height="6" viewBox="0 0 11 6" fill="none" xmlns="http://www.w3.org/2000/svg">
<path d="M0.199641 0.210487C0.0718094 0.3382 -2.39916e-07 0.511373 -2.32019e-07 0.692035C-2.24122e-07 0.872685 0.0718094 1.04596 0.199641 1.17358L4.82277 5.80036C4.95048 5.92819 5.12366 6 5.30432 6C5.48498 6 5.65816 5.92819 5.78587 5.80036L10.409 1.17358C10.5419 1.04705 10.6181 0.872219 10.6204 0.688722C10.6225 0.505104 10.5505 0.328504 10.4206 0.19888C10.2907 0.0692683 10.1139 -0.00254151 9.93042 6.87073e-05C9.74692 0.00256114 9.57221 0.0790005 9.44593 0.212174L5.3044 4.35734L1.16288 0.212174C1.03541 0.0842242 0.862351 0.0120597 0.681698 0.0117011C0.501048 0.0114636 0.327648 0.0829182 0.199817 0.210512L0.199641 0.210487Z" fill="#331C18"/>
</svg>
