<svg width="18" height="16" viewBox="0 0 18 16" fill="none" xmlns="http://www.w3.org/2000/svg">
<path d="M9.05133 15C8.85626 15 8.67043 14.9267 8.52896 14.7935C8.51868 14.784 7.30116 13.631 2.38329 8.81524L2.349 8.78166C2.29843 8.73264 2.27363 8.7044 2.24882 8.67597C1.44574 7.82578 1 6.72013 1 5.56957C1 3.04998 3.09346 1 5.66649 1C6.92933 1 8.1288 1.49779 8.99975 2.37441C9.87095 1.49775 11.0707 1 12.3335 1C14.9065 1 17 3.04998 17 5.56957C17 6.83216 16.4834 8.00676 15.5449 8.87923C15.5311 8.89492 15.5186 8.90742 15.5093 8.91625C10.5518 13.7707 9.61151 14.7553 9.60248 14.7646C9.4645 14.909 9.27094 14.9946 9.07059 14.9995L9.05133 15ZM5.66674 1.49068C3.36969 1.49068 1.50109 3.32048 1.50109 5.56982C1.50109 6.59652 1.89974 7.58401 2.62347 8.35053C2.64802 8.37823 2.66552 8.39836 2.70262 8.4344L2.73766 8.46872C7.65402 13.283 8.86524 14.4299 8.87603 14.4402C8.92337 14.4848 8.98498 14.5093 9.04956 14.5098L9.0601 14.5096C9.12544 14.5078 9.19057 14.4792 9.23666 14.4309C9.24392 14.423 10.192 13.4306 15.1544 8.57125L15.1905 8.53324C16.0346 7.75369 16.4997 6.70127 16.4997 5.57006C16.4997 3.32072 14.6311 1.49093 12.334 1.49093C11.1228 1.49093 9.97688 2.00368 9.19007 2.89797L9.00025 3.11352L8.81043 2.89772C8.02388 2.00344 6.87821 1.49068 5.66674 1.49068Z" fill="white" stroke="#331C18"/>
</svg>
