<svg width="30" height="30" viewBox="0 0 30 30" fill="none" xmlns="http://www.w3.org/2000/svg">
<rect x="30" y="30" width="30" height="30" rx="2" transform="rotate(-180 30 30)" fill="#7D6D6B"/>
<path d="M20.1654 6.14561C20.0585 6.05313 19.9131 6.00079 19.7611 6.00006C19.6088 5.99886 19.4624 6.05144 19.3568 6.14561L9.8223 14.3183C9.71413 14.4098 9.65321 14.5346 9.65321 14.6649C9.65321 14.7952 9.71413 14.9199 9.8223 15.0114L19.3568 23.1857C19.4627 23.2827 19.61 23.3388 19.765 23.341C19.9202 23.3432 20.0695 23.2914 20.1793 23.1974C20.2888 23.1035 20.3493 22.9753 20.3467 22.8425C20.3441 22.7096 20.2787 22.5833 20.1654 22.4925L11.0353 14.6649L20.1654 6.83906C20.2732 6.74731 20.3337 6.62256 20.3337 6.49238C20.3337 6.36231 20.2732 6.23756 20.1654 6.14582L20.1654 6.14561Z" fill="white"/>
</svg>
