<svg width="41" height="40" viewBox="0 0 41 40" fill="none" xmlns="http://www.w3.org/2000/svg">
<path d="M38.2685 27.4108C39.6317 24.7673 40.3433 21.8365 40.3439 18.8625C40.3384 13.8615 38.3491 9.06711 34.8131 5.53088C31.2767 1.9948 26.482 0.00547238 21.4815 1.19293e-07C18.6152 -0.000323739 15.7874 0.658769 13.2167 1.92673C12.3892 1.15882 11.2977 0.739087 10.1687 0.754923C9.03999 0.770469 7.96046 1.22001 7.15438 2.01064L1.46381 7.71837C-2.02956 11.2224 0.874352 23.5241 8.63156 31.303C14.3085 36.9964 22.4424 39.9748 27.5432 39.9748C29.2238 40.1245 30.895 39.6027 32.1921 38.5239L37.7551 32.946H37.7554C38.4689 32.2261 38.9104 31.2803 39.004 30.2704C39.0979 29.2609 38.8378 28.2504 38.2688 27.4113L38.2685 27.4108ZM35.7005 30.896L35.5829 31.0139L28.9742 27.4089C29.5766 26.7216 30.4786 25.8105 31.4525 26.412L35.3802 28.6046C35.7743 28.8284 36.0422 29.2226 36.105 29.6715C36.1675 30.1204 36.0182 30.5728 35.7005 30.8961L35.7005 30.896ZM35.991 21.764H37.1437C36.8988 23.0835 36.4868 24.366 35.9178 25.5816L32.8665 23.8779C32.0345 23.4161 31.0745 23.2386 30.1323 23.3727C29.1905 23.5068 28.3179 23.945 27.6478 24.6206L25.2589 27.0409C25.2278 27.073 21.9006 30.2256 15.816 24.1234C9.8342 18.1245 12.8107 14.7932 12.902 14.6929L15.4774 12.2175H15.4771C16.1702 11.5509 16.623 10.6742 16.7655 9.7233C16.908 8.77237 16.7315 7.80138 16.2641 6.96131L14.8335 4.391C16.4736 3.6341 18.2313 3.16514 20.0305 3.00387V4.35253C20.0305 4.87106 20.3071 5.35006 20.756 5.60916C21.2049 5.86826 21.7581 5.86826 22.207 5.60916C22.6559 5.35006 22.9325 4.87105 22.9325 4.35253V2.9751C26.5003 3.30157 29.8535 4.82414 32.4476 7.29561L31.4626 8.28053L31.463 8.28021C31.1906 8.5526 31.038 8.92149 31.038 9.30626C31.038 9.69102 31.1906 10.0599 31.463 10.3323C31.735 10.6044 32.1039 10.7572 32.4887 10.7572C32.8734 10.7572 33.2427 10.6044 33.5147 10.332L34.3659 9.4808C36.3636 12.2008 37.4415 15.4874 37.4424 18.8624H35.9914C35.4729 18.8624 34.9939 19.139 34.7348 19.5879C34.4757 20.0368 34.4757 20.59 34.7348 21.0389C34.9939 21.4878 35.4729 21.7644 35.9914 21.7644L35.991 21.764ZM11.5051 4.37797L13.7282 8.37239C13.884 8.65254 13.9429 8.97642 13.8956 9.29347C13.848 9.61022 13.6971 9.90269 13.4662 10.1252L12.5516 11.0045L8.92057 4.34812C9.20396 3.90538 9.69529 3.6398 10.221 3.64595C10.7466 3.65178 11.2321 3.9287 11.5051 4.37791L11.5051 4.37797ZM30.1373 36.4744C29.3652 36.9618 28.4502 37.1727 27.5427 37.0723C23.0412 37.0723 15.8048 34.387 10.6857 29.2535C3.42727 21.9737 1.8389 11.4513 3.51797 9.76648L6.78334 6.49141L10.4318 13.1802C9.36243 14.751 7.14931 19.5424 13.7606 26.1726C20.4118 32.8429 25.2225 30.5787 26.773 29.5141L33.4478 33.1548L30.1373 36.4744ZM27.2098 20.7724C27.0877 21.137 26.826 21.4386 26.482 21.6105C26.1381 21.7825 25.7397 21.811 25.3747 21.6895L21.0218 20.2386C20.7332 20.1424 20.4819 19.9574 20.3037 19.7103C20.1259 19.4635 20.0301 19.1665 20.0301 18.8621V10.2077C20.0301 9.68914 20.3067 9.21014 20.7556 8.95104C21.2045 8.69193 21.7576 8.69193 22.2065 8.95104C22.6554 9.21014 22.932 9.68915 22.932 10.2077V17.8159L26.2932 18.9362C26.6579 19.058 26.9594 19.32 27.1314 19.6643C27.3034 20.0083 27.3316 20.407 27.2098 20.772L27.2098 20.7724Z" fill="#0096DA"/>
</svg>
