<svg width="30" height="30" viewBox="0 0 30 30" fill="none" xmlns="http://www.w3.org/2000/svg">
<rect width="30" height="30" rx="2" fill="#7D6D6B"/>
<path d="M9.83461 23.8544C9.9415 23.9469 10.0869 23.9992 10.2389 23.9999C10.3912 24.0011 10.5376 23.9486 10.6432 23.8544L20.1777 15.6817C20.2859 15.5902 20.3468 15.4654 20.3468 15.3351C20.3468 15.2048 20.2859 15.0801 20.1777 14.9886L10.6432 6.81433C10.5373 6.71727 10.39 6.66118 10.235 6.659C10.0798 6.65683 9.93048 6.70856 9.82074 6.80261C9.71116 6.89653 9.65067 7.02467 9.65334 7.15752C9.65588 7.29037 9.72132 7.41669 9.83456 7.50748L18.9647 15.3351L9.83456 23.1609C9.72682 23.2527 9.66632 23.3774 9.66632 23.5076C9.66632 23.6377 9.72682 23.7624 9.83456 23.8542L9.83461 23.8544Z" fill="white"/>
</svg>
