<svg width="59" height="30" viewBox="0 0 59 30" fill="none" xmlns="http://www.w3.org/2000/svg">
<path d="M58.5102 16.5978L54.4088 8.24674C54.1104 7.63599 53.5612 7.25653 52.9714 7.25653H46.6764V1.17714C46.6764 0.527667 46.2372 0 45.6978 0H21.4163C20.8769 0 20.4386 0.527667 20.4386 1.17714V24.9788C20.4386 25.6283 20.8769 26.1571 21.4163 26.1571H25.6216C25.9904 28.3463 27.5998 30 29.5244 30C31.4495 30 33.0593 28.3463 33.4286 26.1571H45.8427C46.2114 28.3463 47.8218 30 49.7469 30C51.6719 30 53.2804 28.3463 53.6487 26.1571H56.5841C57.8158 26.1571 58.821 24.9468 58.821 23.4609V17.9681C58.8206 17.4865 58.7129 17.0127 58.5101 16.5973L58.5102 16.5978ZM56.2811 16.7701L51.5344 16.7045C51.1931 16.7045 50.9063 16.4126 50.9063 16.0679V12.9923C50.9063 12.843 51.0066 12.7223 51.1306 12.7223H54.3163L56.2811 16.7701ZM22.3939 2.35376H44.7192V18.3365H22.3939V2.35376ZM22.3939 20.6932H28.2232C27.0329 21.1928 26.1088 22.3447 25.7354 23.8003H22.3939V20.6932ZM29.5244 27.6432C28.4059 27.6432 27.4963 26.548 27.4963 25.2031C27.4963 23.8582 28.406 22.7657 29.5244 22.7657C30.6429 22.7657 31.5525 23.8581 31.5525 25.2031C31.5525 26.5481 30.6429 27.6432 29.5244 27.6432ZM49.7467 27.6432C48.6296 27.6432 47.72 26.548 47.72 25.2031C47.72 23.8582 48.6296 22.7657 49.7467 22.7657C50.8637 22.7657 51.771 23.8581 51.771 25.2031C51.771 26.5481 50.8637 27.6432 49.7467 27.6432ZM56.5834 23.8003H53.5343C53.0326 21.8435 51.5346 20.4086 49.7462 20.4086C47.9583 20.4086 46.4583 21.8434 45.9562 23.8003H33.3142C32.9407 22.3447 32.0167 21.1928 30.8254 20.6932H45.697C46.2364 20.6932 46.6756 20.1645 46.6756 19.515V9.61063H52.806L53.1734 10.3679H51.1299C49.9266 10.3679 48.948 11.545 48.948 12.9922V16.0677C48.948 17.7175 50.108 19.0585 51.5215 19.0585L56.8617 19.1337V23.4617C56.8626 23.648 56.7386 23.8002 56.5833 23.8002L56.5834 23.8003Z" fill="#FF0100"/>
<path d="M3.79446 9.2488C4.33388 9.2488 4.77214 8.72114 4.77214 8.07167C4.77214 7.4222 4.33388 6.89453 3.79446 6.89453H1.14443C0.605006 6.89453 0.166748 7.4222 0.166748 8.07167C0.166748 8.72114 0.605006 9.2488 1.14443 9.2488H3.79446Z" fill="#FF0100"/>
<path d="M17.9582 6.89502H7.53798C6.99856 6.89502 6.5603 7.42268 6.5603 8.07215C6.5603 8.72162 6.99856 9.24929 7.53798 9.24929H17.9582C18.4977 9.24929 18.9359 8.72162 18.9359 8.07215C18.9354 7.42268 18.4977 6.89502 17.9582 6.89502Z" fill="#FF0100"/>
<path d="M3.46862 14.2553C3.46862 13.6058 3.03036 13.0781 2.49094 13.0781H1.62655C1.08712 13.0781 0.648865 13.6058 0.648865 14.2553C0.648865 14.9047 1.08712 15.4324 1.62655 15.4324H2.49094C3.03082 15.4318 3.46862 14.9047 3.46862 14.2553Z" fill="#FF0100"/>
<path d="M7.23427 15.2117H16.9971C17.5365 15.2117 17.9748 14.684 17.9748 14.0346C17.9748 13.3851 17.5365 12.8574 16.9971 12.8574H7.23427C6.69485 12.8574 6.25659 13.3851 6.25659 14.0346C6.25706 14.684 6.69485 15.2117 7.23427 15.2117Z" fill="#FF0100"/>
<path d="M6.54917 18.8223H2.9634C2.42398 18.8223 1.98572 19.3511 1.98572 20.0005C1.98572 20.65 2.42398 21.1788 2.9634 21.1788H6.54917C7.08859 21.1788 7.52685 20.65 7.52685 20.0005C7.52685 19.3511 7.08859 18.8223 6.54917 18.8223Z" fill="#FF0100"/>
<path d="M17.9583 18.8223H9.59926C9.05984 18.8223 8.62158 19.3511 8.62158 20.0005C8.62158 20.65 9.05984 21.1788 9.59926 21.1788H17.9583C18.4977 21.1788 18.9359 20.65 18.9359 20.0005C18.9355 19.3511 18.4977 18.8223 17.9583 18.8223Z" fill="#FF0100"/>
<path d="M18.894 1.15527H17.9583C17.4188 1.15527 16.9806 1.68294 16.9806 2.33241C16.9806 2.98188 17.4188 3.50955 17.9583 3.50955H18.894C19.4334 3.50955 19.8717 2.98188 19.8717 2.33241C19.8712 1.68238 19.4334 1.15527 18.894 1.15527Z" fill="#FF0100"/>
<path d="M0.977681 3.50955H15.0639C15.6033 3.50955 16.0416 2.98188 16.0416 2.33241C16.0416 1.68294 15.6033 1.15527 15.0639 1.15527L0.977681 1.15583C0.438258 1.15583 0 1.6835 0 2.33297C0 2.98244 0.438258 3.50955 0.977681 3.50955V3.50955Z" fill="#FF0100"/>
</svg>
